<?xml version="1.0" encoding="UTF-8"?>
<svg id="Camada_2" data-name="Camada 2" xmlns="http://www.w3.org/2000/svg" viewBox="0 0 646.14 1033.66">
  <defs>
    <style>
      .cls-1 {
        fill: #592893;
      }
    </style>
  </defs>
  <g id="Camada_1-2" data-name="Camada 1">
    <g id="_85afd5af6c" data-name="85afd5af6c">
      <g>
        <path class="cls-1" d="M255.99,1.64c.21,1.23-.66,1.51-1.36,2.16-16.2,14.91-21.32,23.01-23.73,45.36-1.85,17.14-1.21,34.57-3.33,51.7.69,7.18.05,10.86,6.96,14.34,4.14,2.09,9.25,3.46,13.39,5.7.51.28,1.01-.21.85,1.14-10.46,2.18-4.49,10.85-5.79,17.57-.62,3.21-3.61,5.99-5.05,8.93-5.6,11.45-1.21,19.62-1.11,31.03.04,5.02-3.04,8.3-1.12,13.86,1.1,3.18,12.39,8.76,15.77,9.6,1.37.34,5.05.34,5.65.73.74.49.94,3.17,1.78,4.33,1.46,2.01,6.03,2.23,6.07,5.2-7.12,1.94-12.89,4.1-19.69-.05-4.65-2.84-8.94-9.83-14.81-3.34-5.62,6.23-5.82,31.35-4.79,39.6.59,4.71,2.4,9.8,2.77,14.65.75,9.75-3.67,17.28-4.94,26.47-.75,5.42,0,9.32-.07,14.41-.13,8.68-4.41,13.75,5.03,19.4,3.91,2.34,8.51,1.82,6.82,8.04-1.59,5.88-5.71,4.4-10.1,5.38-5.46,1.22-7.88,6.36-12.19,9.2-1.8,1.19-3.79,1.99-5.74,2.89-1.56.72-9.13,4.03-10.06,3.5-.97-.55-1.04-3.85-.34-4.58s3.83-.72,4.35-2.25l-3.1-5.94c8.1-6.4,4.99-17.71,3.05-26.4-3.5-15.69-12.84-30.31-12.87-46.82,0-3.57,3.06-8.44,4.07-12.21,1.51-5.65,2.49-13.92.38-19.47-1.15-3.02-3.98-4.05-4.95-5.65-1.04-1.72,0-10.22-.07-13s-1.19-6.5-.89-9.19c.47-4.29,7.57-3.89,9.56-7.82,1.4-2.77,1.29-11.89.51-14.96-1.4-5.52-7.26-6.69-8.32-10.8-.7-2.69.19-6.57.04-9.38-.68-12.55-4.76-19.83-2.96-33.29,2.17-16.24,5.37-26.49,2.25-43.62-2.06-11.33-9.24-22.05-12.84-33.16-4.59-14.15-2.81-22.28-19.89-26.87-8.11-2.18-24.59-.71-32.87,1.13-9.23,2.04-12.14,11.3-13.81,19.38-3.85,18.64.24,36.21.66,54.89.21,9.14-2.82,23.33.4,31.26,4.41,10.87,21.84,14.19,32.32,13.86-5.41,5.79-15.57,11.66-16.36,20.33-.23,2.53.76,5-.11,7.39-.64,1.77-2.22,2.2-3.11,3.49-6.08,8.83-3.03,21.29-3.59,31.54-.42,7.72-2.47,13.22-.81,21.28,1.58,7.68,6.45,13.01,9.78,19.55,6.42,12.58-2.24,16.13-1.2,27.77,5.69,16.66,2.18,34.2,2.61,51.41-.71,1.5-3.09-.81-3.79-1.54-4.01-4.17-6.59-9.61-11.57-14.21-6.86-6.33-14.54-8.46-17.91-18.13-1.59-4.55-3.07-13.27-3.84-18.24-.32-2.08-.42-4.2-.7-6.28,4.51.18,5.86,11.07,8.88,11.65,5.47,1.04,6.14-8.01,4.86-11.67-.39-1.11-1.58-1.86-2.15-2.92-2.11-3.93-.84-8.71-1.81-13.3-1.58-7.42-6.63-15.42-8.57-23.55-3.83-16.03-.17-25.61-13.96-38-1.14-1.02-2.59-1.43-3.62-2.33-4.6-4.01-6.33-12.82-9.23-18.37-4.7-9.01-16.09-21.98-26.69-23.38-14.79-1.95-30.36,16.83-33.74,29.9-3.74,14.47,1.31,25.36.14,39.01-.45,5.34-2.84,10.83-3.34,16.28-.4,4.36.4,7.71.43,11.81.03,5.58-2.84,12.61-2.45,17.54.33,4.13,2.45,8.04,2.55,12.97.11,5.35-3.81,10.23.27,14.62,3.13,3.36,8.02,3.03,10.34-1.15,3.47-6.24-1-7.32-2.47-12.4-1.38-4.73-.22-7.61-.46-11.89-.21-3.85-1.35-8.25-1.27-11.99.07-3.52,2.07-7.87,2.34-12.1.16-2.52-.57-12.93-.03-13.98,1.83-3.53,5.5,3.53,6.12,4.88,2.57,5.62,2.48,12.94,9.02,15.52,1.38.54,5.47.91,5.92,2.01-.47,3.02-2.61,5.46-2.76,8.67-.46,9.86,8.26,26.92,11.47,37.06,2.23,7.05,1.81,17.21,11.53,18,1.57.13,5.12-1.01,5.72.96s-3.01,3.32-3.18,4.81c-.09.82.83,2.6.88,4.15.12,3.58-2.12,7.3-2.43,10.55-.46,4.83,6.47,17,8.6,22.34,3.96,9.92,7.31,20.29,9.23,30.82.7,3.88.57,8.19,1.34,12.02,2.08,10.3,11.3,19.79,14.44,30-.7,3.87-2.56,7.67-3.62,11.58-2.85,10.47-5.28,30.18-2.86,40.62,1.04,4.48,9.13,6.83,13.12,8.24-.67,2.75-3.41,4.54-2.98,7.74.11.84,1.02,3.01,1.54,3.7,1.5,1.96,4.01.78,4.28,4.03.19,2.22-2.53,6.33-3.19,8.94-2.91,11.52,3.62,24.06-.83,34.24-.62,1.43-3.12,4.5-3.28,5.35-.51,2.71,1.15,4.26,1.66,6.4,1.08,4.5-1.28,11.14-1.81,15.93-2.66,24.39,7.44,46.88,8.71,71.3.28,5.33-.67,10.81-.46,16.09.27,6.6,2.18,12.25,3.17,18.5,2.77,17.57-5.77,42.67-5.44,60.47.09,4.83,1.32,9.87,1.55,14.7.33,6.91-1.79,20.52,1.39,26.28,1.44,2.59,6.05,4.6,8.96,4.44,6.96-.38,12.08-13.3,11.98-19.35-.18-10.52-.39-22.06-1.89-32.47-1.01-7.01-3.1-14.09-4.04-21.1-.69-5.14.53-7.87.35-12.22s-2.18-8.91-2.58-13c-.45-4.63,1.53-11.2,1.14-16.08,2.47-5.05,6.8,5.26,8.59,7.67,2.17,2.93,5.72,6.95,8.27,9.61,8.63,9.02,13.33,6.76,24.3,8.93,12.22,2.42,22.98,9.85,35.88,10.68,2.5.16,9.27-.6,10.69.37,1.33.91,1.52,2.75,1.63,4.24,1.9,24.99-.28,51.16-1.53,76.1-.67,13.28-1.08,25.1-3.9,38.28-.89,4.17-4.45,7.68-5.47,12.08-3,12.93,4.91,30.59,19.43,31.54,7.18.47,12.34-12.07,12.38-18.08.05-6.3-3.02-10.47-3.37-15.63-.18-2.65,1.54-5.19,1.36-6.68-.23-2.03-3.01-5.91-3.83-8.25-4.51-12.91,3.41-20.89,1.19-31.99-.31-1.54-1.23-2.89-1.52-4.32-1.53-7.45,1.43-11.11,1.29-17.81-.19-9.16-3.65-16.96-5.01-25.47-1.34-8.37,2.84-11.99,3.67-19.5.63-5.71-.35-10.77-.41-16.29-.08-7.63,6.01-8.28,10.49-13.06,2.78-2.96,4.59-6.34,6.08-10.09,2.11,3.36,6.51,6.43,10.51,4.4l.44-24.58c1.4-2.04,3.84-7.07,5.64-2.95-2.21,14.73,1.86,29.33,2.62,43.97.97,18.57-1.04,38.41-.89,57.14.17,20.09,1.32,40.04,1.02,60.16-.11,7.04-1.64,14.74-.29,21.7.57,2.94,2.44,6.05,2.61,9.05.23,3.97-1.88,8.25-2.33,12.14-.59,5.12,1.08,9.45-.69,14.41-1.07,2.99-3.97,5.42-4.08,8.71-.22,6.88,7.5,17.14,4.71,23.72-.61,1.44-2.58,3.47-3.46,5.21-2.95,5.79-5.79,12.85,0,17.94,1.49,1.32,4.24,1.7,4.39,4.48-2.99,5.2-5.75,8.47-4.46,14.91.31,1.54,1.22,2.89,1.52,4.33,1.6,7.49-7.27,10.97-5.58,19.38.29,1.43,1.18,2.47,1.49,3.76,1.57,6.53-5.59,23.58-5.15,33.2.46,10.12,6.15,7.88,11.58,14.49l4.38-.48c3.05-2.68,6.38-3.67,8.6-7.34,3.03-4.99-.42-4.98-.42-9.29,0-3.85,2.58-7.53,1.95-12.46s-4.12-9.13-4.41-14.44c-.16-2.95,1.22-5.46,1.29-7.96.09-3.27-1.02-6.84-.95-10.24.12-6.07,3.79-14.21,3.32-19.33-.34-3.71-3.17-6.9-3.39-10.61-.28-4.74,3.39-22.13,4.49-27.86,1.59-8.24,5.49-16.29,3.49-24.56-.57-2.34-2.02-4.13-2.42-6.96-.42-3.03.4-5.52.24-8.33-.84-14.52-2.05-28.87-1.98-43.48.05-9.63,1.52-20.05,1.1-29.54-.35-7.73-2.14-15.78-2.62-23.54-.81-13.09.75-26.41,1.13-39.49.21-7.28-.46-14.75-.06-21.99.48-8.73,3.14-5.96,9.76-7.66,2.82-.72,7.45-4.52,9.55-4.15,1.73.31,2.4,3.24,3.37,4.55,2.23,3.03,8.01,9.84,11.81,10.17,1.97.17,3.91-.52,5.87-.47,4.94.12,10.24,5.54,14.99,6.97.41,12.67.67,25.34.85,38.02.07,5.18-.87,11.73-.39,16.69.33,3.42,1.87,7.88,2.38,11.34,3.14,21.6-3.72,44.28-4.8,65.47-.35,6.88,1.87,10.26,2.17,16.2.43,8.43-2.57,14.55.63,23.5,1.68,4.69,8.7,7.42,12.88,4.75,2.37-1.51,5.99-8.61,6.95-11.39,2.96-8.55,1.21-30.75-.27-40.15-1.26-8.01-4.15-15.64-4.35-23.88-.08-3.21,1.75-7.57,1.59-9.66-.1-1.22-2.23-3.96-2.67-5.75-.51-2.07-.77-5.41-.88-7.6-.85-16.58,1.32-34.4.45-51-.33-6.33-3.12-16.82-1.21-22.41,1.29-3.79,6.51-8.18,10.35-9.18,8.72-2.27,10.93-.41,10.96,8.27.02,4.7-3.63,14.43-2.98,17.51.93,4.43,8.93,8.28,11.99,2.16,3.9-7.81.09-15.47,1.51-24.23.98-6.08,1.48-9.9,9.14-8.27.59,2.1-.15,4.09.18,6.28.66,4.43,5.84,8.99,9,3.67s-.72-10.49,1.2-15c1.27-2.97,14.57-9.43,18.41-12.7,4.6-3.92,6.01-9.19,8.85-11.87,2.87-2.72,13.53-7.52,17.75-10.25,9.3-6.01,16.72-12.94,25.22-19.73,6.67-5.32,13.75-8.77,19.03-15.71,3.22-4.24,5.7-9.56,8.72-13.97,6.29-9.18,13.06-17.84,18.46-27.63,3.33-6.04,5.24-12.23,9.8-17.6,12.29-14.48,31.24-27.64,45.65-40.3,2.57-2.25,8.9-9.54,10.99-10.66,3.6-1.93,10.27-.22,13.76-4.47l1.18.49c-1.24,7.51.57,15.02.11,22.5-.88,14.36-5.42,30.17-4.3,44.95.34,4.5,2.78,8.59,3.63,12.88,2.13,10.64-.37,18.39-1.12,28.52-.62,8.39-.27,16.64-1.64,25.12-1.27,7.86-4,12.01-2.34,20.56.5,2.55,2.17,5.63,2.49,8.1,1.37,10.55-7.65,18.15-2.6,30.62,2.17,5.35,8.35,3.67,11.28-.35,4.46-6.11,1.61-22.56,1.93-30.37.08-1.84,1.62-4.31,2.06-6.33,1.86-8.49-.88-17.22-.51-25.84.38-8.7,4.01-16.26,4.16-25.6.13-8.24-2.03-16.31-2.04-24.07,0-3.14,1.25-6.58,1.13-10.07-.28-8.18-5.32-15.54-3.58-23.31,1.06-4.74,3.98-8.61,4.81-14.11,1.15-7.59-1.95-17.02.66-23.41.51-1.24,2.38-3.37,2.49-4.03.49-3.04-5.49-8.22-2.58-13.99,1.18-2.34,11.01-9.2,13.76-10.94,7.27-4.61,13.48-2.98,19.65-10.72,4.83-6.07,4.37-11.76,7.01-18.33,3.33-8.28,8.7-12.86,8.09-22.96-.85-13.95-14.1-28.17-28.4-28.07-2.71.02-5.39.75-8.1.76-8.42,0-17.31-3.05-25.48-.29-12.04,4.07-35.85,19.68-39.08,32.59-1.21,4.84-.19,10.51-1.21,14.49-1.06,4.12-4.7,2.77-7.98,3.59-11.98,3-14.31,11.51-23.65,15-12.15,4.55-29.31,5.25-39.47,13.82-7.08,5.97-12.24,14.64-21.44,18.27-7.93,3.13-14.38,1.34-22.49,1.51-2.45-5.19-5.34-7.66-10.34-10.14-1.22-.61-2.63-.48-3.95-1.31-2.59-1.62-6.37-8.63-6.57-11.72-.32-5.08,3.22-10.29,2.22-15.22-.72-3.58-4.31-5.44-5.25-8.41-1.25-3.95-.42-7.98-3.63-11.66-2.83-3.25-6.38-3.16-9.45-5.03-2.68-1.64-4.79-5.51-7.22-7.81-5.68-5.35-21.86-12.69-29.46-11.07-3.86.82-7.28,3.92-11.1,4.98.1,8.77-9.12,10.11-12.69,16.91-8.25-4.86-4.63,7.06-11.09,6.82-.65-.51,3.74-14.18-3.33-12.91-1.42.25-11.04,6.5-12.72,7.81-2.47,1.93-6.93,8.24-7.43,8.52-1.21.7-2.67.39-3.95.83-3.64,1.25-4.79,7.46-6.47,10.29-1.67,2.81-4.02,3.38-5.06,6.92-.25.86.12,1.99-.25,2.79-.68,1.51-6.2,2.55-7.03,6.35-1,4.57,3.45,9.5,2.86,10.74-.46.96-3.74,1.69-5.06,2.46-2.92,1.71-5.87,5.42-8.87,7.37l1.02,8.78c-.89,1.57-4.37-.48-5.37,1.7-2.43,5.77-5.64,11.27-7.94,17.09-1.94,4.89-3.02,10.11-5.21,14.78-2,.25-1.08-9.44-1.52-10.5-.87-2.09-6.86-1.15-2.49-5.66,1.62-1.67,4.13-1.44,3.55-4.39-1.08-5.58-9.81-14.44-9.72-18.96.03-1.5,1.31-2.58.53-4.42s-5.8-2.2-7.72-2.85c-12.29-4.18-19.67-20.85-26.69-30.85-.61-.87-4.05-5.88-4.39-6.03-1.82-.8-3.39.5-2.92,2.65.79,3.56,8.09,12.36,8.03,15.02,0,.44-.16.88-.53,1.15-1.12.91-5.77-1.32-7.59-1.68-4.38-.88-9.1-.87-13.49.14-2.95.68-5.81,3.74-8.46,1.08-1.04-1.05-3.95-5.67-2.53-6.87,1.25-1.05,4.12.43,2.86-3.48-1.02-3.15-6.84-8.02-8.07-11.12-2.09-5.28-.83-8.11-5.58-12.96-2.92-2.98-6.25-2.77-4.49-8.1,2.19-6.64,8.33-6.5,13.85-4.19,4.63,1.94,13.21,11.31,17.96,5.69,1.79-2.11-.07-13.74-.01-17.46.02-1.34.41-9.16,1.46-9.29,3.79,2.33-1.68,15.08,5.5,11.87,5.97-2.67,2.37-15.13,2.18-20.2-.22-5.99,1.51-16.82,3.87-22.34,2.5-5.83,9.81-6.28,14.78-3.41,3.98,2.3,4.5,8.24,8.5,10.56l-2.94,2.63c.02,3.94,1.14,8.05,1.22,11.95.09,4.21-1.72,7.96-.72,12.13.35,1.48,2.19,6.26,3.74,6.54s8.46-.67,10.25-1.09c6.09-1.4,14.17-7.71,18.84-11.87,2.17-1.93,8.6-9.41,10.45-9.6,1.48-.16,2.19.48,4.18-.12,3.37-1.01,7.29-6,10.56-5.82,1.59.09,2.93,1.24,5.25,1.03,1.84-.17,9.67-2.8,10.55-1.68l.05,2.74c-5.35,3.95-16.43,3.82-21,7.54-1.29,1.05-2.44,3.74-3.97,4.35-1.33.53-3.34-.21-5.21.27-.55.14-5.88,2.62-6.02,2.92-.23.48.33,2.7-.04,4.21-.53,2.14-3.3,4.34-3.64,6.06s.27,3.28.25,4.93l-1.88.28c-1.18-1.65.33-5.66-2.67-6.64-2.77-.9-3.37,1.56-5.29,2.73-4.96,3.02-6.69,4.58-11.08,8.1-1.02.81-2.56,1.24-3.26,1.88-1.65,1.53-.54,7.47-.87,9.77-.37,2.53-3.47,4.6-3.51,6.22-.06,2.14,4.94,7.21,7.25,7.19,4.87-.04,2.52-3.02,2.56-4.87.06-2.72,4.52-3.94,6.48-5.8,3.54-3.36,4.8-9.04,7.72-12.78.51-.65.82-1.39,1.8-1.3,1.3,2.84-3.37,9.99-.68,11.75,3.17,2.08,4.53-6.95,7.56-7.56,2.29-.48,6.04,4.06,7.63,3.98.66-.03,1.98-1.51,3.18-1.81,4.99-1.23,11.04,7.27,11.44,11.68.46,5.07-4.22,9.23,4.91,6.91,1.11-.28,2.53-.69,3.55-1.15,6.3-2.83,10.45-14.75,15.72-15.87,4.53-.96,6.47,2.02,9.57-3.31.75-1.28,2.11-3.38-.11-4.1-.5-.16-2.75,1.18-4.03,1.33-1.78.2-7.76-1.63-8.66-2.95-2.07-3.02,4.26-.72,4.97-.6,9.48,1.57,14.82-9.74,22.65-8.31,2.44.45,6.18,3.76,9.69,3.18l1.32,3.66c4.18-1.27.05-5.28,5.01-6.97,2.46-.84,4.08.23,6.43.17,1.8-.05,4.24-.33,6.01-.67,5.53-1.04,10.76-5.51,16.19-3.35,8.65,3.44,10.99,8.58,22.6,7.33,5.13-.55,6.27-9.43,4.61-13.23-.45-1.02-2.05-2.06-2.83-3.32-3.07-4.97-.88-6.76-.85-11.52.04-5.42-1.04-10.91-.47-16.34.82-7.94,5.16-12.1,8.18-18.89,4.13-9.32,5.64-19.71,5.67-29.87,0-2.97-2.07-7.02,1.87-8.23-2.26,16.29,13.73,12.17,17.18,1.02-.37-5.12-1.82-10.02-2.13-15.17-.83-14.11,4.92-27.23,3.76-41.37-.49-6.03-2.85-12.02-3.11-17.94-.2-4.65,1.29-9.9,1.18-14.52-.18-7.55-2.57-16-2.52-23.46.02-3.52,1.92-6.58,2.04-9.84.11-3.07-.49-6.52-.31-9.72.39-7.07,3.63-11.54,5.64-17.93,3.48-11.05,2.7-20.47,3.4-31.69,1.7-27.23,24.15-71.07-6.58-90.52-7.52-4.76-27.01-8.64-35.46-5.93-4.43,1.42-11.75,13.81-14.05,18.19-8.45,16.06-12.19,37.78-12.48,55.85-.09,5.62-.25,23.93,2.51,27.81,1.07,1.5,3.9,2.34,4.02,4.39s-1.16,5.46-1.38,7.83c-.48,5.18-.28,10.48-1.02,15.64-.86,5.94-5.31,12.04-.12,16.35.17,1.47-3.73,3.5-2.29,8.43.89,3.03,6.28,8.37,9.1,9.83,4.44,2.3,7.61.92,12.02,1.82,4.18.86,9.24,3.31,13.94,4.41,3.02.71,7.65-.33,8.62,3.57.02.83-.55,1.69-1.31,2.01-4.51,1.9-25.35-5.59-31.28-6.82-2.15-.45-4.28-1.45-6.18.3-2.29,2.12,2.65,5.7.69,7.78-1.11,1.18-6.07.95-8.72,2.75-7.8,5.29-8.3,17.69-10.7,25.89-.61,2.86,3.85,4.05,3.42,6.65-.27,1.68-4.54,2.96-6.01,4.71-3.46,4.12-3.12,15.36-4.24,21.05-1.92,9.83-9.61,18.9,1.68,26.2,1.89,1.22,5.41,2.85,7.54,3.67,2.5.95,11.64,2.78,12.73,4.08,1.15,1.38.73,8.16-1.8,9.14-2.99,1.16-4.98-3.37-6.88-4.57-4.98-3.12-8.01,1.03-12.61,1.45-6.48.59-35.57-8.23-42.52-11.17-3.69-1.56-10.55-5.9-13.74-8.39-4.36-3.4-1.32-3.45.28-6.78,2.43-5.07-.93-7.5-1.77-11.9-1.7-8.9,6.34-14.62,5.11-24.36-.47-3.69-3.29-7.28-2.83-11.21.22-1.84,4.03-5.72,5.15-8.34,2.07-4.86,2.07-9.39,1.03-14.56-2.34-11.56-2.7-23.78-4.4-35.55-.63-4.37-4.04-6.97-1.82-11.89.5-1.1,1.6-1.85,2.07-2.84,2.39-5.11,6.38-25.59,6.64-31.59.63-14.04-4.76-29.84-2.78-43.11.48-3.18,2.35-5.65,3.04-8.54,2.14-8.92-1.94-19.07-2.27-28.24-.38-10.69,3.18-21.43,3.51-32.11.55-17.81-7.65-35.39-20.63-47.39-4.63-4.28-6.69-4.14-12.42-5.71-.89-.24-1.78.05-1.65-1.33l-14.8,1.64ZM145.2,148.44c3.95-1.18,8.6.58,12.39-.31,5.02-1.18,6.51-7.86,11.93-7.29,1.83.39,1.47,7.05,1.05,8.68-.93,3.53-3.99,3.54-7.16,3.3-3.58-.27-11.99-2.34-15.85-3.28-.65-.16-2.27-.33-2.36-1.1ZM390.51,157.31c1.76-.66,7.5-.83,9.86-1.09.92-.1,5.99,1.44,6.67,2.27.98,1.19,1.33,3.38-.45,3.71-4.7.86-11.81-4.13-16.78-3.7-.17-.14.5-1.11.7-1.18ZM61.83,322.65c2.32-.29,6.24-1.26,6.33,2.06-2.82,1.29-6.3,2-6.33-2.06ZM173.03,365.19c2.51-1.27,5.57-3.2,6.67.58-1.45,2.73-4.97,1.17-6.67-.58ZM267.92,552.51c-.78-.73-2.73-.26-4.1-2.06-4.03-5.3.43-15.67,6.48-17.73-.98,4.08-1.15,7.57,2.26,10.55-.78,2.02-4.04.11-4.84.85l-.12,2.18c2.99,3.16,7.33-1.8,9.44,2.02.36,1.8-2.11,4.21-.22,5.81l1.42.15,1.86-3.27,1.12.15c.12.69.18,1.38.1,2.07-.53,4.4-8.79,17.09-10.97,22.65s-2.35,9.98-3.95,14.79c-.68,2.05-3.53,7.01-4.44,2.49-.79-3.93,3.48-12.83,4.66-17.27.46-1.74,2.84-11.83,2.08-12.55-2.83.95-2.9,5.24-3.84,7.65-.73,1.86-3.6,9.48-4.44,10.41-1.9,2.09-3.91-2.85-4.45-4.36-1.23-3.39-2.29-8.42-.85-11.85.9-2.14,4.12-3.47,4.2-5.65.09-2.38-5.33-6.01-2.45-7.93,2.16-1.45,2.62,1.56,3.58,2.41.77.68,1.94.88,2.71,1.6,1.2,1.11,1.66,2.78,3.2,3.52,2.35-.41,2.77-5.51,1.56-6.64ZM523,551.24c-4.84,1.12-6.13,2.97-8.42,7.02-2.02.82-7.02-2.03-6.56-4.76.33-2.02,4.14-2.76,2.78-7.07-.93-2.92-4.68-2.4-6.47-4.46-.28-.86,1.84-2.4,2.09-3.74.27-1.44-.31-2.8-.09-4.06.65-3.82,13.96-11.21,17.73-12.26.9-.25,7.53-1.51,8.01-1.42,1.01.2,1.39,1.19.9,2.06-.54.94-3.11.51-4.5,1.89-.33.33-2.29,3.3-2.61,3.89-3.79,6.85-3.53,15.31-2.85,22.91Z"/>
        <path class="cls-1" d="M264.08,464.81c-1.05-.15-2.46,1.34-2.6,2.29-.32,2.03,1.74,2.4,2.45,4.04-4.03,7.46-5.91.18-10.45-.53-2.19-.34-5.27.5-4.05,3.14.45.98,3.23,1.09,3.66,3.6.26,1.48-2.56,5.91-.11,6.34,2.11.37,3.42-5.43,7.6-5.17,1.14.07,2.34,1.22,3.64,1.16,2.4-.11,2.96-3.18,6.72-2.84,1.75.16,3.85,2.43,5.45.14,1.23-1.77.22-4.44-.55-6.23-3.06-7.06-4.79-1.79-7.23-2.14-1.21-.17-2.92-3.58-4.52-3.81Z"/>
      </g>
    </g>
  </g>
</svg>